PathFileType	4	(X/Y/Z)	/Users/niels/Desktop/University/Third Semester/Perception and Action/Exam/Gymnastics Motion Tracking/Code for Gym Tracking/Analyzed Data/Webcam_Backflip/id2001_1_baseline_Sports2D/id2001_1_baseline_Sports2D_px_person00.trc
DataRate	CameraRate	NumFrames	NumMarkers	Units	OrigDataRate	OrigDataStartFrame	OrigNumFrames
29.884169884169886	29.884169884169886	8	22	m	29.884169884169886	194	259
Frame#	Time	Hip			RHip			RKnee			RAnkle			RBigToe			RSmallToe			RHeel			LHip			LKnee			LAnkle			LBigToe			LSmallToe			LHeel			Neck			Head			Nose			RShoulder			RElbow			RWrist			LShoulder			LElbow			LWrist		
		X1	Y1	Z1	X2	Y2	Z2	X3	Y3	Z3	X4	Y4	Z4	X5	Y5	Z5	X6	Y6	Z6	X7	Y7	Z7	X8	Y8	Z8	X9	Y9	Z9	X10	Y10	Z10	X11	Y11	Z11	X12	Y12	Z12	X13	Y13	Z13	X14	Y14	Z14	X15	Y15	Z15	X16	Y16	Z16	X17	Y17	Z17	X18	Y18	Z18	X19	Y19	Z19	X20	Y20	Z20	X21	Y21	Z21	X22	Y22	Z22
194	6.491731266149871	0.9737063897681189	-0.721820849492443	0.0	0.9827848713218579	-0.7251606731495002	0.0	1.2937455247432408	-0.9335827196995474	0.0	1.2329058214337918	-1.1010308606920642	0.0	1.3376787889781974	-1.1117366165990266	0.0	1.2546271127312012	-1.1319380183696217	0.0	1.168886549564483	-1.091016982234861	0.0	0.938220942527158	-0.7400738530911198	0.0	1.007537140248511	-1.0663833567826209	0.0	1.4423938658476254	-0.8265366640466829	0.0	1.5239090860765667	-0.8521064163688093	0.0	1.5138769531249987	-1.0358222656250002	0.0	0.6148691406249998	-0.9392568359375	0.0	0.9836873759182085	-0.2700732776075776	0.0	1.0327742755663007	-0.07482394699423847	0.0	1.056573626442565	-0.1819973169704616	0.0	0.9565324896577645	-0.302979250075694	0.0	1.0795814474530132	-0.5167792104452851	0.0	1.292342522022454	-0.6428066740507824	0.0	0.9879433243315585	-0.32311001979885673	0.0	1.078127484071601	-0.532952534376022	0.0	1.251400054942806	-0.567281647493193	0.0
195	6.525193798449613	0.9707447027326238	-0.7173855970371661	0.0	0.9776983019484088	-0.7177752012183348	0.0	1.321185012754131	-0.8731712934032648	0.0	1.267712779537763	-1.0971317280428157	0.0	1.3742730519041715	-1.1161892319158497	0.0	1.2702579478988163	-1.1292659666935925	0.0	1.2024066956230177	-1.092847928708932	0.0	0.9393445358270962	-0.7376175571141164	0.0	1.012231955667746	-1.0673472322967925	0.0	1.4426782960446447	-0.8265081843061938	0.0	1.5239043719576553	-0.8521875520251833	0.0	1.5138769531249987	-1.0358222656250002	0.0	0.6148691406249998	-0.9392568359375	0.0	0.9843143283024315	-0.2692697036964223	0.0	1.0321462996533002	-0.07494081814646447	0.0	1.0552467093691313	-0.18097070469568463	0.0	0.9520338415963943	-0.3040105877402018	0.0	1.086450324717372	-0.5109385439780624	0.0	1.3045345970132376	-0.6252662478465636	0.0	0.9985665202990571	-0.3235598121614618	0.0	1.094831442269573	-0.521845504921393	0.0	1.2705506486559428	-0.5326171403710664	0.0
196	6.558656330749354	0.9680494890516391	-0.7128775854316903	0.0	0.9723667935828539	-0.7100974242497278	0.0	1.3376695509912202	-0.810940880791041	0.0	1.3012067106072085	-1.0885098462631166	0.0	1.4213472935848614	-1.1173954259706393	0.0	1.2991062731404304	-1.1225299296711309	0.0	1.2442977520035559	-1.0913669673804134	0.0	0.9423053389979642	-0.7351648988720645	0.0	1.0200920914373035	-1.0678199467328235	0.0	1.4429973679598833	-0.8265066109926835	0.0	1.5239031160707017	-0.8522091682702364	0.0	1.5138769531249987	-1.0358222656250002	0.0	0.6148691406249998	-0.9392568359375	0.0	0.9856525772089576	-0.26795435257831857	0.0	1.0322420807407353	-0.0747777262302049	0.0	1.0549530472405382	-0.17991425023942412	0.0	0.9494825531204931	-0.3053151129234636	0.0	1.0939396302810862	-0.5063101539412805	0.0	1.315591020455298	-0.6099660452732962	0.0	1.0069319105929029	-0.32364742784182804	0.0	1.111082246743698	-0.5106421981016753	0.0	1.2859135580750805	-0.5019020199096346	0.0
197	6.5921188630490954	0.9660782785863224	-0.7092391174292983	0.0	0.967351434441262	-0.7034989167993425	0.0	1.343841375844111	-0.7528755997675486	0.0	1.330449972556407	-1.0730607935159935	0.0	1.46718750416245	-1.1110869907492114	0.0	1.3411172919107097	-1.1103519275064804	0.0	1.287221515353805	-1.0837438194134958	0.0	0.9475181587559193	-0.7335492099831594	0.0	1.0314837283250224	-1.0675240449810195	0.0	1.443191802873663	-0.8265712462254236	0.0	1.5239110584246258	-0.8520724714120272	0.0	1.5138769531249987	-1.0358222656250002	0.0	0.6148691406249998	-0.9392568359375	0.0	0.9873759498435766	-0.266937900809001	0.0	1.0328954111833302	-0.0746592120474204	0.0	1.0556150066481111	-0.17937506137950732	0.0	0.9489356610838102	-0.30729212950974766	0.0	1.1009549202135143	-0.5033554929502819	0.0	1.3248178995655235	-0.597339185468045	0.0	1.0128401140673193	-0.3237793179316929	0.0	1.1247340462332378	-0.5014031299383257	0.0	1.2967330086591708	-0.4762671398769478	0.0
198	6.625581395348838	0.9654097992383532	-0.7072128612193526	0.0	0.963303807138584	-0.6990748641139483	0.0	1.3419831125909496	-0.7028500948805398	0.0	1.3539869881840412	-1.0492277525447842	0.0	1.499724185648633	-1.0951279788960246	0.0	1.3899217407751912	-1.0925669251970627	0.0	1.3242099188893188	-1.0679413715004946	0.0	0.9552632337578472	-0.7333840809693888	0.0	1.0464675636337677	-1.0663692408775087	0.0	1.4429572193428484	-0.8267540220683064	0.0	1.5239360918503806	-0.8516416154314185	0.0	1.5138769531249987	-1.0358222656250002	0.0	0.6148691406249998	-0.9392568359375	0.0	0.9893006529113503	-0.2668467037294143	0.0	1.0339846216992676	-0.0749492322234177	0.0	1.0570670567738616	-0.17976596097455502	0.0	0.9499980789138824	-0.31027819307298765	0.0	1.1064512048272066	-0.502571074664949	0.0	1.3317061044064287	-0.5874044804113737	0.0	1.0170738260597618	-0.3243634994362074	0.0	1.1342969261206326	-0.49561068448911455	0.0	1.3027858656575295	-0.4568401190777928	0.0
199	6.659043927648579	0.9663763102125553	-0.7073303994772315	0.0	0.9608093758946855	-0.6974578855040399	0.0	1.3352957837047335	-0.6617357123941986	0.0	1.3716148095435756	-1.0171320715273655	0.0	1.5168228737909901	-1.071706253696851	0.0	1.4354545177912523	-1.0705182442284258	0.0	1.3516563880054664	-1.043863147198155	0.0	0.9652105288893763	-0.7349359096307716	0.0	1.0644605306820618	-1.0645794526965615	0.0	1.4418366828376832	-0.82710352171028	0.0	1.5239861652476487	-0.8507797896013618	0.0	1.5138769531249987	-1.0358222656250002	0.0	0.6148691406249998	-0.9392568359375	0.0	0.9913002070565987	-0.2679137229708231	0.0	1.0354675406834812	-0.07593174365392999	0.0	1.0590612859981552	-0.18124607971825094	0.0	0.9519869566397127	-0.3143527485399719	0.0	1.1095787827888666	-0.5042575754493723	0.0	1.3357300228688098	-0.5797945702950867	0.0	1.0205158712219502	-0.3257293443584975	0.0	1.1391948041812296	-0.49377169646263613	0.0	1.3044859108048699	-0.4445199416972491	0.0
200	6.69250645994832	0.9688181450449735	-0.7098924775369907	0.0	0.9600489478187306	-0.6989209328738346	0.0	1.326914435354598	-0.6281654821969055	0.0	1.3839453044792855	-0.9794741914741	0.0	1.5244697853555584	-1.0449216405498507	0.0	1.4705477998859005	-1.046322371638033	0.0	1.3691874779006075	-1.0138794489109906	0.0	0.9763699925068138	-0.7382089172549395	0.0	1.0839313079025439	-1.0626596565189024	0.0	1.439302371324931	-0.8276284601824122	0.0	1.5240641676340692	-0.8494372703144475	0.0	1.5138769531249987	-1.0358222656250002	0.0	0.6148691406249998	-0.9392568359375	0.0	0.9932264148809734	-0.2700111076661208	0.0	1.0373041838421149	-0.07768422171395928	0.0	1.0613216532427021	-0.18369060573272133	0.0	0.9541925673249765	-0.3192540562948059	0.0	1.1097804666878084	-0.5083286154752721	0.0	1.3364076136429484	-0.5738595242408557	0.0	1.0236939724510168	-0.3280125651901027	0.0	1.139675962582334	-0.49568393039100667	0.0	1.3027432958126643	-0.4397980804741313	0.0
201	6.725968992248062	0.9721060644182877	-0.7146848623269696	0.0	0.9605890112974345	-0.703194890972631	0.0	1.3192012370787682	-0.6003559079607811	0.0	1.391873949932153	-0.9411465699206726	0.0	1.5281019364656794	-1.018068190607497	0.0	1.493639030032356	-1.0222657350551405	0.0	1.3783497916738177	-0.9823391793278609	0.0	0.9873693835473153	-0.7429360352836901	0.0	1.1026155917160745	-1.0611451116624935	0.0	1.4349997422474983	-0.8282352766233927	0.0	1.5241588422309433	-0.8478078010380831	0.0	1.5138769531249987	-1.0358222656250002	0.0	0.6148691406249998	-0.9392568359375	0.0	0.9949307857703661	-0.272841730406531	0.0	1.0393427015042171	-0.08002720587086676	0.0	1.0635713888132472	-0.1867798904536101	0.0	0.9560538040371387	-0.32450207907163675	0.0	1.107037831086741	-0.5143534368852938	0.0	1.3336024476973891	-0.5689766940411323	0.0	1.0268449880949406	-0.3311163848625711	0.0	1.1365690991686817	-0.5008465056863729	0.0	1.298702738277183	-0.4427400507056555	0.0
